<svg width="36" height="36" viewBox="0 0 36 36" fill="none" xmlns="http://www.w3.org/2000/svg">
<path d="M13.5 13.5V9.30029C13.5 7.62014 13.5 6.77943 13.827 6.1377C14.1146 5.57321 14.5732 5.1146 15.1377 4.82698C15.7794 4.5 16.6201 4.5 18.3003 4.5H26.7003C28.3805 4.5 29.2201 4.5 29.8618 4.82698C30.4263 5.1146 30.8857 5.57321 31.1733 6.1377C31.5003 6.77943 31.5003 7.61951 31.5003 9.29967V17.6997C31.5003 19.3799 31.5003 20.2199 31.1733 20.8617C30.8857 21.4262 30.4259 21.8857 29.8614 22.1733C29.2203 22.5 28.3815 22.5 26.7046 22.5H22.5M13.5 13.5H9.30029C7.62014 13.5 6.77943 13.5 6.1377 13.827C5.57321 14.1146 5.1146 14.5732 4.82698 15.1377C4.5 15.7794 4.5 16.6201 4.5 18.3003V26.7003C4.5 28.3804 4.5 29.2201 4.82698 29.8618C5.1146 30.4263 5.57321 30.8857 6.1377 31.1733C6.7788 31.5 7.61849 31.5 9.29536 31.5H17.7053C19.3822 31.5 20.2207 31.5 20.8618 31.1733C21.4263 30.8857 21.8857 30.4259 22.1733 29.8614C22.5 29.2203 22.5 28.3815 22.5 26.7046V22.5M13.5 13.5H17.7003C19.3805 13.5 20.2201 13.5 20.8618 13.827C21.4263 14.1146 21.8857 14.5732 22.1733 15.1377C22.5 15.7788 22.5 16.6185 22.5 18.2954L22.5 22.5" stroke="black" stroke-width="2" stroke-linecap="round" stroke-linejoin="round"/>
</svg>
