<svg width="50" height="50" viewBox="0 0 50 50" fill="none" xmlns="http://www.w3.org/2000/svg">
<g clip-path="url(#clip0_22_83)">
<path d="M25 50C38.8071 50 50 38.8071 50 25C50 11.1929 38.8071 0 25 0C11.1929 0 0 11.1929 0 25C0 38.8071 11.1929 50 25 50Z" fill="black"/>
<path d="M17.0098 18.1402L24.9993 43.2302L13.144 35.8017M17.0098 18.1402L13.144 35.8017M17.0098 18.1402L24.9993 7.225V14.8807L13.144 35.8017M13.144 35.8017H36.8665M36.8665 35.8017L25.0113 14.8807V7.225L33.0008 18.1402M36.8665 35.8017L33.0008 18.1402M36.8665 35.8017L25.0113 43.2302L33.0008 18.1402" stroke="white" stroke-width="2" stroke-linecap="round" stroke-linejoin="round"/>
</g>
<defs>
<clipPath id="clip0_22_83">
<rect width="50" height="50" fill="white"/>
</clipPath>
</defs>
</svg>
