<svg width="201" height="76" viewBox="0 0 201 76" fill="none" xmlns="http://www.w3.org/2000/svg">
<path d="M71.472 70.912H70.608L64.56 56.224C64.304 55.648 64.048 54.976 63.792 54.208C63.792 54.2293 63.7707 54.3467 63.728 54.56C63.7067 54.7733 63.6747 55.0613 63.632 55.424C63.5893 55.7653 63.5467 56.0533 63.504 56.288L61.104 72H59.664L63.056 51.104H63.92L70.384 66.432C70.896 67.712 71.152 68.384 71.152 68.448C71.3013 68 71.5893 67.3387 72.016 66.464L79.216 51.104H80.08L83.248 72H81.712L79.44 56.224C79.2907 55.1787 79.216 54.4853 79.216 54.144L78.288 56.256L71.472 70.912ZM89.7703 64.8L86.7943 72H85.2903L93.9943 51.104H94.8583L103.626 72H101.994L98.9863 64.8H89.7703ZM94.3463 53.472C94.0263 54.432 93.7383 55.232 93.4823 55.872L90.2823 63.552H98.4743L95.3063 55.904C94.8156 54.7093 94.4956 53.8987 94.3463 53.472ZM107.84 72V51.232H109.312V72H107.84ZM116.996 72V51.104H117.7L131.332 66.784C131.823 67.3387 132.271 67.8933 132.676 68.448C133.103 68.9813 133.327 69.2587 133.348 69.28C133.306 68.768 133.284 67.7653 133.284 66.272V51.232H134.756V72.128H134.052L120.164 56.192L118.404 54.048C118.447 54.4747 118.468 55.4773 118.468 57.056V72H116.996ZM142.434 72V51.104H143.138L156.77 66.784C157.26 67.3387 157.708 67.8933 158.114 68.448C158.54 68.9813 158.764 69.2587 158.786 69.28C158.743 68.768 158.722 67.7653 158.722 66.272V51.232H160.194V72.128H159.49L145.602 56.192L143.842 54.048C143.884 54.4747 143.906 55.4773 143.906 57.056V72H142.434ZM167.871 72V51.232H177.567V52.512H169.343V60.064H176.767V61.312H169.343V70.656H177.887V72H167.871ZM187.49 52.544H180.45V51.232H195.97V52.544H188.93V72H187.49V52.544Z" fill="#0F4FE3"/>
<path d="M62.9714 28.776C63.1614 32.006 64.3014 34.552 66.3914 36.414C68.4814 38.276 70.8184 39.207 73.4024 39.207C74.9984 39.207 76.5184 38.827 77.9624 38.067C79.4444 37.269 80.6794 36.053 81.6674 34.419C81.8574 34.191 81.9714 34.077 82.0094 34.077C82.0854 34.077 82.1994 34.134 82.3514 34.248L84.5744 35.502C84.8784 35.654 84.9544 35.882 84.8024 36.186C83.5104 38.124 81.8384 39.682 79.7864 40.86C77.7724 42.038 75.5684 42.627 73.1744 42.627C69.2604 42.627 65.9544 41.202 63.2564 38.352C60.5584 35.502 59.2094 32.006 59.2094 27.864C59.2094 23.798 60.5394 20.359 63.1994 17.547C65.8594 14.735 69.2034 13.329 73.2314 13.329C77.3734 13.329 80.7174 14.792 83.2634 17.718C85.8474 20.644 87.1394 24.178 87.1394 28.32C87.1394 28.624 86.9684 28.776 86.6264 28.776H62.9714ZM83.3204 26.097C82.9784 23.437 81.8954 21.214 80.0714 19.428C78.2474 17.642 75.9674 16.749 73.2314 16.749C70.4954 16.749 68.1964 17.642 66.3344 19.428C64.5104 21.176 63.4274 23.399 63.0854 26.097H83.3204ZM107.593 42.627C105.541 42.627 103.622 42.247 101.836 41.487C100.05 40.689 98.4925 39.625 97.1625 38.295C95.8325 36.965 94.7685 35.426 93.9705 33.678C93.2105 31.892 92.8305 29.992 92.8305 27.978C92.8305 25.964 93.2105 24.064 93.9705 22.278C94.7685 20.492 95.8325 18.934 97.1625 17.604C98.4925 16.274 100.05 15.229 101.836 14.469C103.622 13.671 105.541 13.272 107.593 13.272C109.645 13.272 111.564 13.671 113.35 14.469C115.136 15.229 116.694 16.274 118.024 17.604C119.354 18.934 120.399 20.492 121.159 22.278C121.957 24.064 122.356 25.964 122.356 27.978C122.356 29.992 121.957 31.892 121.159 33.678C120.399 35.426 119.354 36.965 118.024 38.295C116.694 39.625 115.136 40.689 113.35 41.487C111.564 42.247 109.645 42.627 107.593 42.627ZM107.65 16.749C104.572 16.749 101.95 17.851 99.7845 20.055C97.6565 22.221 96.5925 24.862 96.5925 27.978C96.5925 31.094 97.6565 33.754 99.7845 35.958C101.95 38.124 104.572 39.207 107.65 39.207C110.69 39.207 113.274 38.124 115.402 35.958C117.53 33.754 118.594 31.094 118.594 27.978C118.594 24.862 117.53 22.221 115.402 20.055C113.274 17.851 110.69 16.749 107.65 16.749ZM128.921 35.958C129.111 35.844 129.244 35.787 129.32 35.787C129.472 35.787 129.624 35.901 129.776 36.129C130.574 37.117 131.733 37.934 133.253 38.58C134.773 39.226 136.388 39.549 138.098 39.549C140.15 39.549 141.803 39.093 143.057 38.181C144.349 37.269 144.995 36.072 144.995 34.59C144.995 33.336 144.425 32.31 143.285 31.512C142.145 30.714 140.226 29.897 137.528 29.061C134.07 28.035 131.562 26.952 130.004 25.812C128.446 24.634 127.667 23.038 127.667 21.024C127.667 18.706 128.541 16.844 130.289 15.438C132.037 14.032 134.222 13.329 136.844 13.329C138.972 13.329 141.005 13.766 142.943 14.64C144.919 15.476 146.363 16.521 147.275 17.775V21.765C147.275 22.069 147.104 22.221 146.762 22.221H144.71C144.368 22.221 144.197 22.069 144.197 21.765V19.086C142.449 17.338 140.245 16.464 137.585 16.464C135.723 16.464 134.222 16.863 133.082 17.661C131.942 18.459 131.372 19.523 131.372 20.853C131.372 21.993 131.923 22.924 133.025 23.646C134.127 24.368 135.913 25.09 138.383 25.812C141.879 26.838 144.463 27.997 146.135 29.289C147.845 30.581 148.7 32.31 148.7 34.476C148.7 36.984 147.731 38.979 145.793 40.461C143.893 41.943 141.366 42.684 138.212 42.684C135.856 42.684 133.671 42.266 131.657 41.43C129.643 40.556 128.104 39.416 127.04 38.01C126.85 37.668 126.926 37.402 127.268 37.212L128.921 35.958ZM160.216 14.013C160.558 14.013 160.729 14.184 160.729 14.526V41.43C160.729 41.81 160.52 42 160.102 42H157.537C157.157 42 156.967 41.81 156.967 41.43V17.034H152.863C152.559 17.034 152.407 16.882 152.407 16.578V14.526C152.407 14.184 152.559 14.013 152.863 14.013H160.216ZM156.967 0.674999C156.967 0.370998 157.119 0.218998 157.423 0.218998H160.216C160.558 0.218998 160.729 0.370998 160.729 0.674999V5.52C160.729 5.824 160.558 5.976 160.216 5.976H157.423C157.119 5.976 156.967 5.824 156.967 5.52V0.674999ZM183.018 42.627C180.966 42.627 179.047 42.247 177.261 41.487C175.475 40.689 173.917 39.625 172.587 38.295C171.257 36.965 170.193 35.426 169.395 33.678C168.635 31.892 168.255 29.992 168.255 27.978C168.255 25.964 168.635 24.064 169.395 22.278C170.193 20.492 171.257 18.934 172.587 17.604C173.917 16.274 175.475 15.229 177.261 14.469C179.047 13.671 180.966 13.272 183.018 13.272C185.07 13.272 186.989 13.671 188.775 14.469C190.561 15.229 192.119 16.274 193.449 17.604C194.779 18.934 195.824 20.492 196.584 22.278C197.382 24.064 197.781 25.964 197.781 27.978C197.781 29.992 197.382 31.892 196.584 33.678C195.824 35.426 194.779 36.965 193.449 38.295C192.119 39.625 190.561 40.689 188.775 41.487C186.989 42.247 185.07 42.627 183.018 42.627ZM183.075 16.749C179.997 16.749 177.375 17.851 175.209 20.055C173.081 22.221 172.017 24.862 172.017 27.978C172.017 31.094 173.081 33.754 175.209 35.958C177.375 38.124 179.997 39.207 183.075 39.207C186.115 39.207 188.699 38.124 190.827 35.958C192.955 33.754 194.019 31.094 194.019 27.978C194.019 24.862 192.955 22.221 190.827 20.055C188.699 17.851 186.115 16.749 183.075 16.749Z" fill="#0F4FE3"/>
<path d="M7.17011 28.3115L21.9889 75L0 61.1767M7.17011 28.3115L0 61.1767M7.17011 28.3115L21.9889 8V22.2461L0 61.1767M0 61.1767H44M44 61.1767L22.0111 22.2461V8L36.8299 28.3115M44 61.1767L36.8299 28.3115M44 61.1767L22.0111 75L36.8299 28.3115" stroke="#0F4FE3" stroke-width="2" stroke-linecap="round" stroke-linejoin="round"/>
</svg>
