<svg width="26" height="26" viewBox="0 0 26 26" fill="none" xmlns="http://www.w3.org/2000/svg">
<path d="M11.1668 14.8334L16.4168 9.58337M21.7873 6.37939L17.3558 20.7819C16.9586 22.0726 16.7599 22.7182 16.4174 22.9323C16.1203 23.1179 15.7524 23.1489 15.4289 23.0147C15.0557 22.8599 14.7529 22.2552 14.1488 21.047L11.3419 15.4333C11.246 15.2415 11.1981 15.1461 11.134 15.063C11.0772 14.9893 11.0116 14.9228 10.9379 14.866C10.8567 14.8034 10.7628 14.7565 10.5797 14.6649L4.953 11.8516C3.74475 11.2475 3.14057 10.9451 2.98575 10.572C2.85149 10.2484 2.88211 9.88024 3.06774 9.58313C3.2818 9.24055 3.92742 9.04152 5.21854 8.64426L19.621 4.21273C20.6361 3.90041 21.1438 3.74437 21.4866 3.87024C21.7853 3.97987 22.0207 4.21508 22.1303 4.51371C22.2561 4.8564 22.1 5.36387 21.788 6.37789L21.7873 6.37939Z" stroke="black" stroke-width="2" stroke-linecap="round" stroke-linejoin="round"/>
</svg>
